<?xml version="1.0" standalone="yes"?>
<svg width="160" height="136">
<path style="fill:#000000; stroke:none;" d="M0 0L0 136L160 136L160 0L141 0L141 3L145 3L145 133L15 133L15 129L11 129L11 0L0 0z"/>
<path style="fill:#474747; stroke:none;" d="M11 0L11 129L12 129L12 39C12 27.8419 15.3077 10.2657 11 0z"/>
<path style="fill:#f2f2f2; stroke:none;" d="M12 0L12 129L15 129L15 3L140 3L140 0L12 0z"/>
<path style="fill:#a7a7a7; stroke:none;" d="M140 0L140 4L15 4L15 132L144 132L144 4L141 4L140 0z"/>
<path style="fill:#c8c8c8; stroke:none;" d="M15 3L15 4L140 4C129.973 -0.207703 112.896 3 102 3L15 3z"/>
<path style="fill:#5a5a5a; stroke:none;" d="M141 3L141 4L145 4L141 3z"/>
<path style="fill:#8b8b8b; stroke:none;" d="M144 4L144 132L145 132L145 43C145 31.8419 148.308 14.2657 144 4z"/>
<path style="fill:#bfbfbf; stroke:none;" d="M19 7L19 129L141 129L141 7L19 7z"/>
<path style="fill:#545454; stroke:none;" d="M23 45L23 70L24 70L23 45z"/>
<path style="fill:#000000; stroke:none;" d="M24 45L24 70C28.6485 70 34.8602 71.0476 38.892 68.2577C45.5523 63.6489 45.9443 50.7995 38.74 46.4568C34.6597 43.9972 28.5653 45 24 45z"/>
<path style="fill:#404040; stroke:none;" d="M48 45L48 70L49 70L48 45z"/>
<path style="fill:#000000; stroke:none;" d="M49 45L49 70L67 70L67 66L53 66L53 59L65 59L65 55L53 55C54.1258 47.9409 60.1598 49 66 49L66 45L49 45z"/>
<path style="fill:#4b4b4b; stroke:none;" d="M66 45L66 49L67 49L66 45z"/>
<path style="fill:#000000; stroke:none;" d="M70 45L75.6829 58L70 70C75.7676 69.8084 77.6412 67.0272 80 62C83.0431 66.9315 84.9203 69.801 91 70L84.4938 56.5756L90 45C84.668 45.1772 83.0317 47.2107 81 52L79 52C77.3872 47.0088 75.2414 45.1738 70 45M115 62C111.121 62.3029 107.627 66.2637 104.015 65.8248C96.7728 64.9452 97.0523 53.905 102.108 50.6474C105.989 48.1466 110.81 52.6897 115 53C111.695 41.3319 94.9488 43.1281 93.2176 55C91.0464 69.8891 110.37 77.4464 115 62M118 63C119.988 72.6176 137.553 73.9709 137.833 63.0008C138.011 56.0086 122.728 55.2758 124.346 51.213C125.924 47.2486 134.077 51.7974 137 52C134.756 44.1978 120.581 41.4091 118.478 51.0147C116.437 60.3311 127.734 57.0311 131.248 61.6875C134.071 65.4281 127.514 66.5766 125.17 65.5008C122.494 64.2723 121.014 63.235 118 63z"/>
<path style="fill:#656565; stroke:none;" d="M76 46L77 47L76 46M135 47L136 48L135 47z"/>
<path style="fill:#2d2d2d; stroke:none;" d="M41 48L43 51L41 48z"/>
<path style="fill:#464646; stroke:none;" d="M28 49L28 66L29 66L28 49z"/>
<path style="fill:#707070; stroke:none;" d="M29 49L29 50L36 50L29 49z"/>
<path style="fill:#6b6b6b; stroke:none;" d="M54 49L54 50L66 50L54 49z"/>
<path style="fill:#bebebe; stroke:none;" d="M29 50L29 66C41.6938 65.6923 42.3268 50.0471 29 50z"/>
<path style="fill:#616161; stroke:none;" d="M53 50L53 55L54 55L53 50z"/>
<path style="fill:#666666; stroke:none;" d="M87 50L88 51L87 50z"/>
<path style="fill:#676767; stroke:none;" d="M73 51L74 52L73 51z"/>
<path style="fill:#2a2a2a; stroke:none;" d="M132 52L132 53L137 53L132 52z"/>
<path style="fill:#5b5b5b; stroke:none;" d="M85 53L86 54L85 53z"/>
<path style="fill:#484848; stroke:none;" d="M110 53L110 54L115 54L110 53z"/>
<path style="fill:#717171; stroke:none;" d="M65 55L65 59L53 59L53 66L54 66L54 60L66 60L65 55z"/>
<path style="fill:#474747; stroke:none;" d="M126.667 59.3333L127.333 59.6667L126.667 59.3333z"/>
<path style="fill:#848484; stroke:none;" d="M93.3333 61.6667L93.6667 62.3333L93.3333 61.6667z"/>
<path style="fill:#686868; stroke:none;" d="M110 61L110 62L115 62L110 61z"/>
<path style="fill:#898989; stroke:none;" d="M109.333 62.6667L109.667 63.3333L109.333 62.6667z"/>
<path style="fill:#808080; stroke:none;" d="M118 62L118 63L123 63L118 62z"/>
<path style="fill:#595959; stroke:none;" d="M103 66L103 67L106 67L103 66z"/>
<path style="fill:#949494; stroke:none;" d="M125 66L125 67L130 67L125 66z"/>
<path style="fill:#4e4e4e; stroke:none;" d="M100.667 70.3333L101.333 70.6667L100.667 70.3333z"/>
<path style="fill:#636363; stroke:none;" d="M106.667 70.3333L107.333 70.6667L106.667 70.3333z"/>
<path style="fill:#575757; stroke:none;" d="M123.667 70.3333L124.333 70.6667L123.667 70.3333z"/>
<path style="fill:#565656; stroke:none;" d="M130.667 70.3333L131.333 70.6667L130.667 70.3333z"/>
<path style="fill:#000000; stroke:none;" d="M44 83L48 83C49.2332 78.988 54.9967 78.0325 53.6543 83.0054C51.9892 89.1739 44.3044 90.8582 43 98L59 98L59 95L49 95C51.9413 91.6853 56.6026 89.2657 58.2569 84.9853C62.5704 73.825 44.4365 69.587 44 83z"/>
<path style="fill:#5b5b5b; stroke:none;" d="M53.6667 74.3333L54.3333 74.6667L53.6667 74.3333z"/>
<path style="fill:#000000; stroke:none;" d="M67.1049 74.7461C57.3811 78.7265 60.6439 103.865 73.8912 98.3966C82.1862 94.9727 80.0513 69.4466 67.1049 74.7461M82 83L86 83C87.3711 79.3172 93.0391 77.8047 91.6543 83.0193C89.9717 89.3554 82.5576 90.6236 82 98L97 98L97 95L88 95C90.6753 91.3645 95.5593 88.541 96.6813 83.9961C99.5161 72.5134 82.6789 70.6353 82 83z"/>
<path style="fill:#020202; stroke:none;" d="M101 82L105 82L105 78C113.822 78.675 108.659 82.9258 107 88C108.834 88.9366 113.669 93.2949 108.872 94.3881C106.651 94.8943 103.327 92.379 101 92C102.267 100.116 115.413 102.173 116.664 92.9846C117.086 89.89 116.389 78.7458 114.396 76.4336C109.133 70.328 101.699 75.7821 101 82z"/>
<path style="fill:#6b6b6b; stroke:none;" d="M75 75L76 76L75 75z"/>
<path style="fill:#656565; stroke:none;" d="M101 77L102 78L101 77z"/>
<path style="fill:#757575; stroke:none;" d="M69 78L69 79L72 79L69 78z"/>
<path style="fill:#5c5c5c; stroke:none;" d="M87 78L88 79L87 78z"/>
<path style="fill:#555555; stroke:none;" d="M105.333 78.6667L105.667 79.3333L105.333 78.6667z"/>
<path style="fill:#3f3f3f; stroke:none;" d="M43 79L43 83L44 83L43 79z"/>
<path style="fill:#6e6e6e; stroke:none;" d="M59 79L59 84L60 84L59 79z"/>
<path style="fill:#bebebe; stroke:none;" d="M68.5988 80.0471C65.5123 82.3484 66.2088 97.2312 71.7261 93.9136C76.0244 91.3289 74.3725 75.7419 68.5988 80.0471z"/>
<path style="fill:#3d3d3d; stroke:none;" d="M97 79L97 84L98 84L97 79z"/>
<path style="fill:#757575; stroke:none;" d="M100 79L100 82L101 82L100 79z"/>
<path style="fill:#666666; stroke:none;" d="M111 79L111 82L112 82L111 79z"/>
<path style="fill:#5a5a5a; stroke:none;" d="M54 80L54 84L55 84L54 80z"/>
<path style="fill:#3a3a3a; stroke:none;" d="M78 80L78 92L79 92L78 80z"/>
<path style="fill:#6c6c6c; stroke:none;" d="M81 80L81 83L82 83L81 80z"/>
<path style="fill:#303030; stroke:none;" d="M66 82L66 91L67 91L66 82z"/>
<path style="fill:#5d5d5d; stroke:none;" d="M107.667 84.3333L108.333 84.6667L107.667 84.3333z"/>
<path style="fill:#5a5a5a; stroke:none;" d="M58 85L59 86L58 85z"/>
<path style="fill:#838383; stroke:none;" d="M106 85L106 88L107 88L106 85z"/>
<path style="fill:#3d3d3d; stroke:none;" d="M31 87L31 92L41 92L41 87L40 87L40 91L32 91L31 87z"/>
<path style="fill:#000000; stroke:none;" d="M32 87L32 91L40 91L40 87L32 87z"/>
<path style="fill:#3d3d3d; stroke:none;" d="M119 87L119 92L129 92L129 87L128 87L128 91L120 91L119 87z"/>
<path style="fill:#000000; stroke:none;" d="M120 87L120 91L128 91L128 87L120 87z"/>
<path style="fill:#5f5f5f; stroke:none;" d="M86 89L87 90L86 89z"/>
<path style="fill:#5a5a5a; stroke:none;" d="M91 90L92 91L91 90z"/>
<path style="fill:#747474; stroke:none;" d="M100 94L101 94L105 92C102.387 90.502 100.646 90.9876 100 94z"/>
<path style="fill:#727272; stroke:none;" d="M49 93L59 95L59 99L60 99L60 94L49 93z"/>
<path style="fill:#636363; stroke:none;" d="M72 94L73 95L72 94z"/>
<path style="fill:#5e5e5e; stroke:none;" d="M88 94L88 95L98 95L88 94z"/>
<path style="fill:#242424; stroke:none;" d="M81 95L81 99L98 99L98 95L97 95L97 98C91.3688 98 85.3472 99.1499 81 95z"/>
<path style="fill:#636363; stroke:none;" d="M102 97L103 98L102 97z"/>
<path style="fill:#242424; stroke:none;" d="M43 98L43 99L59 99L43 98z"/>
<path style="fill:#5d5d5d; stroke:none;" d="M68 99L68 100L73 100L68 99z"/>
<path style="fill:#515151; stroke:none;" d="M105 99L105 100L110 100L105 99z"/>
<path style="fill:#595959; stroke:none;" d="M15 132L15 133L145 133C134.734 128.692 117.158 132 106 132L15 132z"/>
</svg>
